#!OML:ASF Y:\EmotionMaleHayes\Project 1\Capture day 1\Session 1\Male1.ASF
:FULLY-SPECIFIED
:DEGREES
1915
root 8.84231 16.6215 16.7311 681.651 -70.127 399.153
lowerback 7.46379 -1.07473 -15.6245
upperback 3.00773 -2.64378 -1.01541
thorax -0.330247 -1.50775 7.87564
lowerneck -20.2569 -1.70304 -0.177325
upperneck 29.6217 -3.90098 2.93729
head 13.4521 -1.47561 0.469839
rclavicle -1.02374e-014 3.37934e-014
rhumerus -51.4707 -19.2086 -61.3748
rradius 25.4289
rwrist 3.83234
rhand -12.7157 -39.258
rfingers 7.12502
rthumb 13.3672 -68.8092
lclavicle -1.02374e-014 3.37934e-014
lhumerus -26.1206 -8.22245 71.3039
lradius 40.5174
lwrist 3.90107
lhand -23.136 -21.6464
lfingers 7.12502
lthumb 3.31181 8.3076
rfemur -21.6121 -8.85943 13.3199
rtibia 30.0636
rfoot -21.2191 -13.2195
rtoes 14.7147
lfemur 20.8301 13.6014 -26.8393
ltibia 10.1554
lfoot -27.6682 23.1933
ltoes -6.3105
1916
root 8.72842 16.6092 16.7767 681.855 -70.4374 398.823
lowerback 7.43899 -1.15735 -15.3167
upperback 2.96216 -2.72377 -0.877542
thorax -0.355269 -1.53934 7.85774
lowerneck -18.054 -1.86437 -1.4164
upperneck 28.0437 -4.03615 4.2441
head 12.4067 -1.54717 1.17569
rclavicle -1.96797e-014 3.18055e-015
rhumerus -51.7683 -19.5198 -60.9726
rradius 25.1363
rwrist 4.19466
rhand -12.6695 -38.8936
rfingers 7.12502
rthumb 13.4118 -68.4418
lclavicle -1.96797e-014 3.18055e-015
lhumerus -26.7009 -8.07961 72.0755
lradius 40.7575
lwrist 4.41914
lhand -21.552 -19.4285
lfingers 7.12502
lthumb 4.8414 10.4962
rfemur -21.3323 -8.61258 13.5831
rtibia 30.5524
rfoot -23.0198 -13.6951
rtoes 15.3575
lfemur 21.1027 13.5124 -26.4802
ltibia 10.6471
lfoot -27.4399 23.5419
ltoes -7.94109
1917
root 8.61546 16.5993 16.8192 681.869 -70.6871 398.775
lowerback 7.36263 -1.15677 -15.0352
upperback 2.99642 -2.68365 -0.810426
thorax -0.297891 -1.52276 7.76702
lowerneck -19.2808 -1.71176 -0.862393
upperneck 28.8905 -3.87269 3.68478
head 12.9745 -1.46082 0.889322
rclavicle 1.97791e-014 4.77083e-015
rhumerus -51.9923 -19.8604 -60.8448
rradius 25.1593
rwrist 4.4264
rhand -12.3878 -38.99
rfingers 7.12502
rthumb 13.6832 -68.5201
lclavicle 1.97791e-014 4.77083e-015
lhumerus -26.9609 -8.41026 72.9249
lradius 40.9802
lwrist 4.86091
lhand -21.1366 -18.5342
lfingers 7.12502
lthumb 5.24244 11.381
rfemur -20.8511 -8.57739 13.7172
rtibia 30.4089
rfoot -22.6892 -13.885
rtoes 14.1623
lfemur 21.3286 13.6067 -26.1574
ltibia 11.1668
lfoot -27 23.6613
ltoes -9.2965
1918
root 8.49783 16.5976 16.8674 681.921 -70.8171 398.71
lowerback 7.16643 -1.21795 -14.7649
upperback 3.0034 -2.70712 -0.747563
thorax -0.186791 -1.53955 7.67633
lowerneck -20.307 -1.47512 -0.100761
upperneck 29.7711 -3.56482 2.79821
head 13.5135 -1.33983 0.459946
rclavicle -5.2181e-014 -2.5842e-014
rhumerus -52.1983 -19.9023 -60.8964
rradius 25.203
rwrist 4.62392
rhand -12.106 -38.9121
rfingers 7.12502
rthumb 13.9549 -68.4238
lclavicle -5.2181e-014 -2.5842e-014
lhumerus -27.2765 -8.52335 73.8199
lradius 41.1027
lwrist 4.77369
lhand -21.5806 -19.237
lfingers 7.12502
lthumb 4.81373 10.6883
rfemur -20.2763 -8.91495 13.7292
rtibia 30.1061
rfoot -20.4214 -13.4872
rtoes 12.4859
lfemur 21.5422 13.6663 -25.9427
ltibia 11.7688
lfoot -27.326 22.9802
ltoes -7.01541
1919
root 8.37739 16.5956 16.9118 682.723 -71.2703 397.792
lowerback 7.00636 -1.26064 -14.1129
upperback 3.06137 -2.68098 -0.560824
thorax -0.068211 -1.53079 7.5033
lowerneck -19.7778 -1.42555 -0.26963
upperneck 29.3365 -3.42244 2.87006
head 13.2198 -1.29723 0.545342
rclavicle 2.90226e-014 1.27222e-014
rhumerus -52.2728 -19.9828 -61.0159
rradius 25.1082
rwrist 4.9867
rhand -12.0772 -38.3511
rfingers 7.12502
rthumb 13.9826 -67.8609
lclavicle 2.90226e-014 1.27222e-014
lhumerus -27.8103 -8.54305 74.7396
lradius 41.5081
lwrist 4.55462
lhand -23.1497 -22.1409
lfingers 7.12502
lthumb 3.29852 7.81328
rfemur -19.9106 -9.10736 14.2718
rtibia 30.1906
rfoot -20.2518 -12.819
rtoes 14.9197
lfemur 21.7524 13.5416 -25.2967
ltibia 12.5336
lfoot -28.0452 22.1597
ltoes -3.52268
1920
root 8.2529 16.5922 16.9472 684.196 -72.0224 396.108
lowerback 6.9697 -1.20568 -13.1108
upperback 3.06517 -2.52715 -0.316522
thorax -0.121278 -1.43916 7.19554
lowerneck -19.6797 -1.50633 -0.442341
upperneck 29.2564 -3.54855 3.08965
head 13.1772 -1.34402 0.639493
rclavicle -1.67973e-014 -4.77083e-015
rhumerus -52.5023 -20.0528 -61.2085
rradius 25.1767
rwrist 5.35792
rhand -11.8815 -37.9969
rfingers 7.12502
rthumb 14.1712 -67.4935
lclavicle -1.67973e-014 -4.77083e-015
lhumerus -28.653 -9.07414 75.7497
lradius 42.114
lwrist 4.83368
lhand -22.3804 -20.7928
lfingers 7.12502
lthumb 4.0414 9.14858
rfemur -19.541 -9.01481 15.3026
rtibia 30.3117
rfoot -20.2447 -12.4489
rtoes 16.6384
lfemur 21.9718 13.4261 -24.1306
ltibia 13.5585
lfoot -28.5014 21.42
ltoes -1.65754
1921
root 8.12285 16.5905 16.9789 685.653 -72.7224 394.38
lowerback 6.8412 -1.13926 -12.2672
upperback 3.18334 -2.35216 -0.0735497
thorax 0.0060382 -1.35691 6.96476
lowerneck -19.5246 -1.4917 -0.48724
upperneck 29.0277 -3.5834 3.35922
head 13.0585 -1.33071 0.746679
rclavicle -1.59028e-015 -5.725e-014
rhumerus -52.3967 -20.2434 -61.4521
rradius 25.0925
rwrist 5.77338
rhand -11.5572 -37.8569
rfingers 7.12502
rthumb 14.4837 -67.3314
lclavicle -1.59028e-015 -5.725e-014
lhumerus -29.1491 -9.74303 76.766
lradius 42.3224
lwrist 5.57596
lhand -22.8697 -23.1796
lfingers 7.12502
lthumb 3.56891 6.77026
rfemur -18.7187 -8.73711 16.2756
rtibia 30.0131
rfoot -20.4337 -12.4709
rtoes 16.5066
lfemur 22.1876 13.5596 -22.8408
ltibia 14.3175
lfoot -26.2736 23.2948
ltoes -10.5852
1922
root 8.00136 16.5947 17.0122 687.062 -73.2471 392.848
lowerback 6.91685 -1.15192 -11.5545
upperback 3.06578 -2.33353 0.125191
thorax -0.191069 -1.32154 6.78055
lowerneck -20.4478 -1.51522 0.0481084
upperneck 29.9485 -3.69889 2.79849
head 13.6194 -1.37939 0.409474
rclavicle -2.24627e-014 -2.06736e-014
rhumerus -52.367 -20.1984 -61.7257
rradius 24.9013
rwrist 6.3572
rhand -11.3506 -37.1994
rfingers 7.12502
rthumb 14.6827 -66.6596
lclavicle -2.24627e-014 -2.06736e-014
lhumerus -29.8279 -10.1334 77.7343
lradius 42.332
lwrist 5.77525
lhand -23.0618 -24.7029
lfingers 7.12502
lthumb 3.3834 5.25002
rfemur -17.8954 -8.51381 17.0308
rtibia 29.5822
rfoot -20.776 -12.5946
rtoes 15.5616
lfemur 22.0644 13.4321 -21.9742
ltibia 15.6113
lfoot -26.1554 23.2195
ltoes -10.2113
1923
root 7.88741 16.6092 17.0544 687.198 -73.2667 392.799
lowerback 6.92857 -1.28441 -11.4166
upperback 2.84288 -2.50835 0.213775
thorax -0.400511 -1.38339 6.81243
lowerneck -19.1224 -1.11298 -0.249428
upperneck 29.1 -3.12082 3.32266
head 12.9877 -1.11657 0.771088
rclavicle 1.35174e-014 1.51076e-014
rhumerus -52.2528 -19.7513 -62.1394
rradius 24.7975
rwrist 6.91856
rhand -11.172 -35.7963
rfingers 7.12502
rthumb 14.8548 -65.2438
lclavicle 1.35174e-014 1.51076e-014
lhumerus -30.7247 -10.2088 78.7733
lradius 42.4622
lwrist 5.32682
lhand -22.2507 -24.003
lfingers 7.12502
lthumb 4.16669 5.93602
rfemur -17.1473 -9.09831 16.891
rtibia 29.0584
rfoot -21.0104 -12.1031
rtoes 14.5951
lfemur 21.5558 13.2954 -22.0441
ltibia 17.2905
lfoot -26.7141 22.4578
ltoes -6.91349
1924
root 7.74936 16.6143 17.0819 686.637 -73.4099 393.221
lowerback 6.67336 -1.27957 -11.5786
upperback 2.93001 -2.47212 0.326519
thorax -0.159199 -1.38595 7.00918
lowerneck -19.4919 -1.20632 -0.220788
upperneck 29.3775 -3.23791 3.16893
head 13.1794 -1.17868 0.685871
rclavicle -1.40143e-014 -1.98785e-014
rhumerus -51.8793 -19.5177 -62.6383
rradius 24.7389
rwrist 7.38197
rhand -11.0098 -34.6977
rfingers 7.12502
rthumb 15.011 -64.1336
lclavicle -1.40143e-014 -1.98785e-014
lhumerus -31.256 -10.5716 79.8369
lradius 42.5126
lwrist 4.87417
lhand -21.3554 -23.7188
lfingers 7.12502
lthumb 5.03116 6.20151
rfemur -15.8888 -9.33123 16.7141
rtibia 28.116
rfoot -21.1308 -11.6756
rtoes 13.7949
lfemur 21.3563 13.4546 -21.7823
ltibia 18.8976
lfoot -26.2044 22.483
ltoes -6.42493
1925
root 7.6337 16.6263 17.098 688.647 -74.2621 391.207
lowerback 6.57005 -1.14834 -10.6479
upperback 2.89322 -2.22195 0.58192
thorax -0.224511 -1.2462 6.7398
lowerneck -19.5734 -1.15612 -0.0767316
upperneck 29.3956 -3.239 3.2363
head 13.2041 -1.15195 0.686967
rclavicle 2.16675e-014 -1.59028e-015
rhumerus -51.6549 -19.6458 -63.1877
rradius 24.8457
rwrist 7.87419
rhand -10.8176 -34.2555
rfingers 7.12502
rthumb 15.1962 -63.6775
lclavicle 2.16675e-014 -1.59028e-015
lhumerus -31.736 -11.2639 80.8048
lradius 42.4974
lwrist 4.48362
lhand -20.9795 -24.6169
lfingers 7.12502
lthumb 5.39418 5.29449
rfemur -15.1406 -8.74162 17.9078
rtibia 27.3061
rfoot -21.2491 -11.7722
rtoes 13.6237
lfemur 20.6811 13.623 -20.4085
ltibia 20.748
lfoot -25.0052 23.1895
ltoes -8.00751
1926
root 7.51534 16.6423 17.1243 688.2 -74.5126 391.645
lowerback 6.81104 -1.02023 -10.4988
upperback 2.65295 -2.07917 0.58933
thorax -0.64603 -1.13855 6.66984
lowerneck -19.3492 -1.14149 -0.182078
upperneck 29.4609 -3.27186 3.46978
head 13.1922 -1.15224 0.791379
rclavicle -2.96189e-014 7.95139e-016
rhumerus -51.6827 -19.4931 -63.7
rradius 25.128
rwrist 8.21099
rhand -10.3278 -34.0008
rfingers 7.12502
rthumb 15.668 -63.3864
lclavicle -2.96189e-014 7.95139e-016
lhumerus -32.7144 -11.7092 81.8761
lradius 42.5451
lwrist 3.65436
lhand -20.823 -25.3336
lfingers 7.12502
lthumb 5.54526 4.57385
rfemur -14.1718 -8.5698 17.8848
rtibia 26.4316
rfoot -21.3934 -11.5531
rtoes 14.4202
lfemur 19.8871 13.772 -20.2243
ltibia 23.0138
lfoot -24.0682 23.4853
ltoes -7.96578
1927
root 7.39232 16.661 17.1504 687.46 -74.7536 392.305
lowerback 6.73943 -0.937533 -10.5493
upperback 2.71811 -1.96014 0.674929
thorax -0.55486 -1.0881 6.77876
lowerneck -19.4822 -1.13314 -0.327268
upperneck 29.4989 -3.23315 3.5388
head 13.239 -1.13911 0.849666
rclavicle 2.28602e-014 1.51076e-014
rhumerus -50.9802 -19.4705 -64.2474
rradius 25.126
rwrist 8.61382
rhand -9.8702 -33.7527
rfingers 7.12502
rthumb 16.1086 -63.1032
lclavicle 2.28602e-014 1.51076e-014
lhumerus -33.2392 -11.7482 82.8858
lradius 42.5418
lwrist 2.3674
lhand -20.2777 -25.4244
lfingers 7.12502
lthumb 6.0717 4.46864
rfemur -13.1431 -8.4643 17.8007
rtibia 25.6309
rfoot -21.4843 -11.2321
rtoes 14.7115
lfemur 19.0256 13.8718 -20.0908
ltibia 25.7527
lfoot -24.7564 21.9012
ltoes -0.106538
1928
root 7.26467 16.6777 17.1643 688.046 -75.3911 391.519
lowerback 6.79754 -0.844105 -10.1472
upperback 2.71714 -1.81354 0.841734
thorax -0.626347 -1.00861 6.72143
lowerneck -19.2865 -0.909866 -0.0742861
upperneck 29.592 -2.93798 3.32998
head 13.2206 -1.01451 0.775512
rclavicle 1.78906e-015 3.10104e-014
rhumerus -50.3527 -19.3081 -64.9663
rradius 24.9874
rwrist 8.90799
rhand -9.76744 -33.3692
rfingers 7.12502
rthumb 16.2076 -62.7117
lclavicle 1.78906e-015 3.10104e-014
lhumerus -33.8427 -11.7915 83.7006
lradius 42.3602
lwrist 1.14408
lhand -19.1998 -25.4052
lfingers 7.12502
lthumb 7.11225 4.45526
rfemur -12.1428 -7.84374 18.5012
rtibia 24.9529
rfoot -21.6304 -11.3824
rtoes 13.6292
lfemur 18.1856 14.1539 -19.1022
ltibia 28.1914
lfoot -22.0284 23.3572
ltoes -2.72296
